# xmcd
#
# Track frame offsets:
#  150
#  13735
#  29160
#  45565
#  60115
#  74302
#  77212
#  93180
#  113557
#  130165
#  148227
#  176646
#
# Disc length: 3614 seconds
#
# Revision: 0
# Processed by: cddbd v1.5.2PL0 Copyright (c) Steve Scherf et al.
# Submitted via: Collectorz.com_Music_Collector 6.11
#
DISCID=9f0e1c0c
DTITLE=Minutes Too Far - Let It Roll
DYEAR=2006
DGENRE=
TTITLE0=Something You Really Oughta Know
TTITLE1=Seems Like
TTITLE2=Uh Huh
TTITLE3=Rock N' Roll Is Dead
TTITLE4=Love Is A Dance
TTITLE5=Probably Not
TTITLE6=Gimme A Reason
TTITLE7=Quit Your Hardcore Band (While You Still Can)
TTITLE8=Eat Your Heart Out
TTITLE9=So Far Away
TTITLE10=Back Beats In La
TTITLE11=Data track
EXTD=
EXTT0=
EXTT1=
EXTT2=
EXTT3=
EXTT4=
EXTT5=
EXTT6=
EXTT7=
EXTT8=
EXTT9=
EXTT10=
EXTT11=
PLAYORDER=
